<svg height="32" viewBox="0 0 673.41171 144" width="159" xmlns="http://www.w3.org/2000/svg"><g stroke-width="4.599" transform="matrix(1.0540704 0 0 1.0540704 58.842839 72)"><circle fill="#202021" r="60.148518" stroke="#f2af42" stroke-width="4.17069"/><path d="m52 30-52 30-52-30v-60l52-30 52 30z" fill="#202021" stroke="#6cf" stroke-width="7.52571" transform="scale(.97157218)"/><path d="m-23.370198 18.890488-9.607149-37.780924h7.340294l7.987967 33.19324h.755618l7.9879663-33.19324h7.3402937l-9.607149 37.780924zm26.338702 0v-37.780924h7.124403v15.0044244h.971509l12.251813-15.0044244h9.121395l-15.760043 18.62059852 16.29977 19.16032548h-9.391258l-12.521677-15.3282604h-.971509v15.3282604z" fill="#fff" stroke-width="2.2035"/></g><path d="m170.08896 97.200027-12.816-50.4h9.792l10.656 44.28h1.008l10.656-44.28h9.792l-12.816 50.4zm44.35195 1.008q-3.816 0-6.84-1.296-3.024-1.368-4.824-3.888-1.728-2.592-1.728-6.264 0-5.544 3.888-8.352 3.888-2.808 9.936-2.808h9.792v-2.016q0-2.52-1.584-4.104-1.584-1.656-5.04-1.656-3.384 0-5.04 1.584-1.656 1.512-2.16 3.96l-8.352-2.808q.864-2.736 2.736-4.968 1.944-2.304 5.112-3.672 3.24-1.44 7.848-1.44 7.056 0 11.16 3.528 4.104 3.528 4.104 10.224v13.32q0 2.16 2.016 2.16h2.88v7.488h-6.048q-2.664 0-4.392-1.296-1.728-1.296-1.728-3.456v-.072h-1.368q-.288.864-1.296 2.304-1.008 1.368-3.168 2.448-2.16 1.08-5.904 1.08zm1.584-7.344q3.816 0 6.192-2.088 2.448-2.16 2.448-5.688v-.72h-9.144q-2.52 0-3.96 1.08-1.44 1.08-1.44 3.024 0 1.944 1.512 3.168 1.512 1.224 4.392 1.224zm43.48796 7.344q-6.984 0-11.448-3.024-4.464-3.024-5.4-8.64l8.352-2.16q.72 3.744 3.024 5.184 2.376 1.44 5.472 1.44 3.168 0 4.68-1.08 1.512-1.152 1.512-2.808 0-1.656-1.44-2.52-1.44-.936-4.608-1.512l-2.016-.36q-3.744-.72-6.84-1.944-3.096-1.296-4.968-3.528-1.872-2.232-1.872-5.76 0-5.328 3.888-8.136 3.888-2.88 10.224-2.88 5.976 0 9.936 2.664 3.96 2.664 5.184 6.984l-8.424 2.592q-.576-2.736-2.376-3.888-1.728-1.152-4.32-1.152-2.592 0-3.96.936-1.368.864-1.368 2.448 0 1.728 1.44 2.592 1.44.792 3.888 1.224l2.016.36q4.032.72 7.272 1.944 3.312 1.152 5.184 3.384 1.944 2.16 1.944 5.904 0 5.616-4.104 8.712-4.032 3.024-10.872 3.024zm22.89601-1.008v-35.712h9.072v35.712zm4.536-39.888q-2.448 0-4.176-1.584-1.656-1.584-1.656-4.176 0-2.592 1.656-4.176 1.728-1.584 4.176-1.584 2.52 0 4.176 1.584 1.656 1.584 1.656 4.176 0 2.592-1.656 4.176-1.656 1.584-4.176 1.584zm14.61606 39.888v-50.4h9.072v50.4zm19.15205 0v-35.712h9.072v35.712zm4.536-39.888q-2.448 0-4.176-1.584-1.656-1.584-1.656-4.176 0-2.592 1.656-4.176 1.728-1.584 4.176-1.584 2.52 0 4.176 1.584 1.656 1.584 1.656 4.176 0 2.592-1.656 4.176-1.656 1.584-4.176 1.584zm14.61605 39.888v-50.4h9.072v27.864h1.296l11.808-13.176h11.808l-16.488 17.28 17.064 18.432h-11.664l-12.528-14.184h-1.296v14.184zm40.60794 0v-35.712h9.072v35.712zm4.536-39.888q-2.448 0-4.176-1.584-1.656-1.584-1.656-4.176 0-2.592 1.656-4.176 1.728-1.584 4.176-1.584 2.52 0 4.176 1.584 1.656 1.584 1.656 4.176 0 2.592-1.656 4.176-1.656 1.584-4.176 1.584zm32.61604 39.888v-50.4h9.504v20.016h1.296l16.344-20.016h12.168l-21.024 24.84 21.744 25.56h-12.528l-16.704-20.448h-1.296v20.448zm45.35996 0v-35.712h9.072v35.712zm4.536-39.888q-2.448 0-4.176-1.584-1.656-1.584-1.656-4.176 0-2.592 1.656-4.176 1.728-1.584 4.176-1.584 2.52 0 4.176 1.584 1.656 1.584 1.656 4.176 0 2.592-1.656 4.176-1.656 1.584-4.176 1.584zm14.61604 39.888v-35.712h8.928v4.032h1.296q.792-2.16 2.592-3.168 1.872-1.008 4.32-1.008h4.32v8.064h-4.464q-3.456 0-5.688 1.872-2.232 1.8-2.232 5.616v20.304zm42.19202 0q-3.528 0-5.76-2.16-2.16-2.232-2.16-5.904v-20.16h-8.928v-7.488h8.928v-11.088h9.072v11.088h9.792v7.488h-9.792v18.576q0 2.16 2.016 2.16h6.912v7.488zm33.98394 1.008q-6.984 0-11.448-3.024-4.464-3.024-5.4-8.64l8.352-2.16q.72 3.744 3.024 5.184 2.376 1.44 5.472 1.44 3.168 0 4.68-1.08 1.512-1.152 1.512-2.808 0-1.656-1.44-2.52-1.44-.936-4.608-1.512l-2.016-.36q-3.744-.72-6.84-1.944-3.096-1.296-4.968-3.528-1.872-2.232-1.872-5.76 0-5.328 3.888-8.136 3.888-2.88 10.224-2.88 5.976 0 9.936 2.664 3.96 2.664 5.184 6.984l-8.424 2.592q-.576-2.736-2.376-3.888-1.728-1.152-4.32-1.152-2.592 0-3.96.936-1.368.864-1.368 2.448 0 1.728 1.44 2.592 1.44.792 3.888 1.224l2.016.36q4.032.72 7.272 1.944 3.312 1.152 5.184 3.384 1.944 2.16 1.944 5.904 0 5.616-4.104 8.712-4.032 3.024-10.872 3.024zm39.888 0q-5.328 0-9.576-2.16-4.248-2.16-6.696-6.264-2.448-4.104-2.448-9.864v-1.152q0-5.76 2.448-9.864 2.448-4.104 6.696-6.264 4.248-2.16 9.576-2.16 5.328 0 9.576 2.16 4.248 2.16 6.696 6.264 2.448 4.104 2.448 9.864v1.152q0 5.76-2.448 9.864-2.448 4.104-6.696 6.264-4.248 2.16-9.576 2.16zm0-8.064q4.176 0 6.912-2.664 2.736-2.736 2.736-7.776v-.72q0-5.04-2.736-7.704-2.664-2.736-6.912-2.736-4.176 0-6.912 2.736-2.736 2.664-2.736 7.704v.72q0 5.04 2.736 7.776 2.736 2.664 6.912 2.664zm40.67996 7.632q-4.176 0-7.344-1.872-3.096-1.944-4.824-5.328-1.728-3.384-1.728-7.776v-21.312h9.072v20.592q0 4.032 1.944 6.048 2.016 2.016 5.688 2.016 4.176 0 6.48-2.736 2.304-2.808 2.304-7.776v-18.144h9.072v35.712h-8.928v-4.68h-1.296q-.864 1.8-3.24 3.528-2.376 1.728-7.2 1.728z" fill="#ffda9c" stroke-opacity=".754923" stroke-width="3.0015"/></svg>